<?xml version="1.0" standalone="no"?>
<!DOCTYPE svg PUBLIC "-//W3C//DTD SVG 1.1//EN" "http://www.w3.org/Graphics/SVG/1.1/DTD/svg11.dtd" >
<svg xmlns="http://www.w3.org/2000/svg">
<metadata>
Created by FontPrep 20130207 at Thu Aug 21 13:00:28 2014
 By Adel Amodwala
copyright missing
</metadata>
<defs>
<font id="cb10dbcaeac9c8f6bae2612f3441e15f" horiz-adv-x='1024' >
  <font-face 
    font-family="Vegur-Light"
    font-weight="300"
    font-stretch="normal"
    units-per-em="2048"
    panose-1="0 0 4 0 0 0 0 0 0 0"
    ascent="1567"
    descent="-481"
    x-height="963"
    cap-height="1409"
    bbox="-113 -481 1933 1798"
    underline-thickness="102"
    underline-position="-102"
    unicode-range="U+0020-FB02"
  />
<missing-glyph horiz-adv-x="1024" 
d="M102 1239v-1044l349 522zM164 102h696l-348 523zM573 717l349 -522v1044zM512 809l348 522h-696zM0 0v1434h1024v-1434h-1024z" />
    <glyph glyph-name="fi" unicode="fi" horiz-adv-x="962" 
d="M791 963v-963h-70v905h-438v-905h-70v905h-137v58h137v75q0 130 38 228t100 152q124 108 280 108q98 0 143 -31l-6 -61q-49 29 -141 28q-135 0 -239 -102t-105 -303v-94h508z" />
    <glyph glyph-name="fl" unicode="fl" horiz-adv-x="962" 
d="M721 0v1452q-47 10 -92 10q-137 0 -241 -97t-105 -292v-110h247v-58h-247v-905h-70v905h-137v58h137v88q0 127 39 223t102 148q126 104 285 104q88 0 152 -23v-1503h-70z" />
    <glyph glyph-name=".notdef" horiz-adv-x="1024" 
d="M102 1239v-1044l349 522zM164 102h696l-348 523zM573 717l349 -522v1044zM512 809l348 522h-696zM0 0v1434h1024v-1434h-1024z" />
    <glyph glyph-name=".null" horiz-adv-x="0" 
 />
    <glyph glyph-name="nonmarkingreturn" horiz-adv-x="681" 
 />
    <glyph glyph-name="space" unicode=" " horiz-adv-x="479" 
 />
    <glyph glyph-name="exclam" unicode="!" horiz-adv-x="454" 
d="M227 123q27 -1 47 -21t20 -47t-20 -47t-47 -20t-47 20t-20 47t20 47t47 21zM254 266h-53l-17 1143h86z" />
    <glyph glyph-name="quotedbl" unicode="&#x22;" horiz-adv-x="546" 
d="M367 956h-45l-9 549h76zM203 956h-45l-8 549h75z" />
    <glyph glyph-name="numbersign" unicode="#" 
d="M547 520l67 316h-213l-67 -316h213zM805 520v-57h-211l-109 -504h-59l109 504h-213l-109 -504h-59l108 504h-180v57h192l68 316h-188v57h200l109 504h59l-108 -504h213l108 504h60l-109 -504h191v-57h-203l-68 -316h199z" />
    <glyph glyph-name="dollar" unicode="$" 
d="M496 1235q-96 0 -171 -66q-75 -67 -75 -161t57 -159t201 -133t214 -142q71 -76 71 -198t-86 -209t-207 -104v-157h-62v155q-168 4 -291 80l7 66q135 -86 307 -86q113 0 187 75t75 177q0 101 -55 161q-56 60 -202 128t-216 146t-70 196t85 197t194 91v158h61v-156
q156 -5 250 -71l-10 -68q-117 80 -264 80z" />
    <glyph glyph-name="percent" unicode="%" horiz-adv-x="1519" 
d="M1120 643q-86 0 -139 -79t-53 -224t53 -224t140 -79t140 79q52 79 52 224t-53 224q-54 79 -140 79zM1120 700q119 0 189 -100q69 -100 69 -259t-70 -260t-188 -101t-188 101t-70 260t70 259t188 100zM399 1319q-86 0 -139 -79t-53 -224t53 -224t140 -79t140 79
q52 79 52 224t-53 224q-54 79 -140 79zM399 1376q119 0 189 -100t70 -259t-70 -260t-189 -101t-189 100q-70 102 -69 261q-1 159 69 259t189 100zM422 -41h-70l787 1438h69z" />
    <glyph glyph-name="ampersand" unicode="&#x26;" horiz-adv-x="1189" 
d="M471 43q227 0 381 166l-414 500q-283 -186 -282 -377q0 -129 92 -209t223 -80zM760 1147q0 107 -56 163t-153 56q-96 0 -170 -73t-74 -168t30 -161t118 -173q305 180 305 356zM465 -20q-155 0 -267 95t-112 238q0 246 313 443q-88 112 -125 188t-36 160q0 139 95 232
q95 94 220 94t201 -82t76 -192t-80 -208t-256 -207l401 -481q129 178 141 428h62q-10 -276 -164 -475l180 -215h-86l-137 164q-176 -182 -426 -182z" />
    <glyph glyph-name="quotesingle" unicode="'" horiz-adv-x="382" 
d="M203 956h-45l-8 549h75z" />
    <glyph glyph-name="parenleft" unicode="(" horiz-adv-x="727" 
d="M268 668q0 -278 68 -481q68 -202 194 -380l-34 -26q-135 141 -216 379t-81 508t81 508t216 378l34 -26q-126 -178 -194 -380t-68 -480z" />
    <glyph glyph-name="parenright" unicode=")" horiz-adv-x="727" 
d="M528 668q0 -270 -81 -508t-216 -379l-34 26q127 178 194 380q68 202 68 481q1 278 -67 480t-195 380l34 26q135 -140 216 -378t81 -508z" />
    <glyph glyph-name="asterisk" unicode="*" horiz-adv-x="712" 
d="M377 1026l299 109l20 -64l-307 -86l199 -250l-56 -39l-176 262l-176 -262l-55 39l199 250l-308 86l21 64l299 -109l-12 315h65z" />
    <glyph glyph-name="plus" unicode="+" horiz-adv-x="1150" 
d="M606 582h424v-58h-424v-463h-61v463h-424v58h424v462h61v-462z" />
    <glyph glyph-name="comma" unicode="," horiz-adv-x="395" 
d="M4 -291l-59 -10l194 512l84 4z" />
    <glyph glyph-name="hyphen" unicode="-" horiz-adv-x="712" 
d="M598 524h-483v58h483v-58z" />
    <glyph glyph-name="period" unicode="." horiz-adv-x="395" 
d="M180 123q29 -1 48 -21q20 -20 20 -47t-20 -47t-48 -20q-29 0 -48 20t-19 47t19 47t48 21z" />
    <glyph glyph-name="slash" unicode="/" horiz-adv-x="788" 
d="M76 -199h-66l701 1733h67z" />
    <glyph glyph-name="zero" unicode="0" 
d="M467 1311q-141 0 -220 -162t-79 -471t79 -471t220 -162t220 162t79 471t-79 471t-220 162zM467 1376q176 0 274 -176q99 -176 99 -522t-98 -522t-275 -176q-176 0 -274 176t-99 522q0 346 98 522t275 176z" />
    <glyph glyph-name="one" unicode="1" 
d="M643 0h-70v1253l-360 -213l-4 72l399 244h35v-1356z" />
    <glyph glyph-name="two" unicode="2" 
d="M823 1076q0 -130 -79 -269t-283 -395l-277 -346h650v-66h-746v47l328 416q186 237 260 363t74 239t-73 179t-200 67q-74 0 -154 -35t-133 -94l-6 78q56 55 138 86t159 30q158 0 250 -85t92 -215z" />
    <glyph glyph-name="three" unicode="3" 
d="M464 1376q163 0 255 -88t92 -222t-99 -236t-239 -128q158 -18 251 -114t93 -247t-120 -256t-296 -105t-286 83l6 74q133 -92 281 -92t244 84q97 84 97 221t-105 223t-312 86v66q170 6 290 97q120 92 121 220q-1 128 -73 198t-214 70t-264 -104l-4 74q119 96 282 96z" />
    <glyph glyph-name="four" unicode="4" 
d="M621 457v356q0 307 8 471l-457 -827h449zM690 457h180v-66h-180v-389h-69v389h-537v49l520 916h86v-899z" />
    <glyph glyph-name="five" unicode="5" 
d="M776 1282h-497l-29 -504h67q229 0 357 -104t127 -282q0 -178 -124 -296q-124 -116 -290 -116t-274 75l8 74q115 -84 256 -84t246 91q104 91 104 224q0 352 -426 353h-121l37 635h559v-66z" />
    <glyph glyph-name="six" unicode="6" 
d="M758 356q0 134 -72 228t-199 94t-215 -85t-88 -181q0 -145 80 -256t205 -111t207 88t82 223zM502 745q150 -1 242 -111t94 -272q0 -162 -109 -272t-271 -110t-261 144q-98 144 -99 359q0 373 192 621t476 272l4 -63q-268 -29 -430 -255t-166 -521q41 92 126 150t202 58z
" />
    <glyph glyph-name="seven" unicode="7" 
d="M119 1282v66h747v-52l-590 -1296h-75l583 1282h-665z" />
    <glyph glyph-name="eight" unicode="8" 
d="M188 314q0 -116 81 -192q81 -77 206 -77t206 79t81 187q0 218 -283 351q-127 -56 -209 -144t-82 -204zM502 1311q-114 0 -195 -74q-80 -74 -80 -178q0 -217 256 -336q109 41 192 131t83 202t-71 184q-71 71 -185 71zM502 1376q146 0 238 -90t91 -233q0 -213 -272 -359
q276 -139 277 -372q0 -152 -104 -247t-259 -95q-154 0 -256 91t-102 224t86 237t209 158q-256 131 -256 346q0 145 100 243q102 97 248 97z" />
    <glyph glyph-name="nine" unicode="9" 
d="M469 1311q-125 0 -207 -88q-82 -87 -82 -223t72 -229t199 -93t215 85t88 181q0 145 -80 256t-205 111zM172 -20l-4 63q268 29 430 255t166 521q-41 -92 -126 -150q-84 -59 -218 -59t-226 111t-94 273q0 162 109 272t271 110t261 -144q98 -144 99 -360q0 -373 -192 -620
t-476 -272z" />
    <glyph glyph-name="colon" unicode=":" horiz-adv-x="395" 
d="M180 123q29 -1 48 -21q20 -20 20 -47t-20 -47t-48 -20q-29 0 -48 20t-19 47t19 47t48 21zM180 999q29 0 48 -20q20 -20 20 -47t-20 -47q-20 -21 -48 -21q-29 0 -48 20t-19 48q0 27 19 47t48 20z" />
    <glyph glyph-name="semicolon" unicode=";" horiz-adv-x="395" 
d="M4 -291l-59 -10l194 512l84 4zM180 999q29 0 48 -20q20 -20 20 -47t-20 -47q-20 -21 -48 -21q-29 0 -48 20t-19 48q0 27 19 47t48 20z" />
    <glyph glyph-name="less" unicode="&#x3c;" horiz-adv-x="1163" 
d="M997 889l-741 -377l741 -379v-72l-821 426v54l821 424v-76z" />
    <glyph glyph-name="equal" unicode="=" horiz-adv-x="1224" 
d="M1090 317h-955v58h955v-58zM1090 731h-955v57h955v-57z" />
    <glyph glyph-name="greater" unicode="&#x3e;" horiz-adv-x="1163" 
d="M987 539v-54l-821 -424v76l741 377l-741 379v72z" />
    <glyph glyph-name="question" unicode="?" horiz-adv-x="765" 
d="M285 123q27 -1 47 -21t20 -47t-20 -47t-47 -20t-47 20t-21 47q1 27 21 47t47 21zM602 1135q0 113 -79 171t-215 58t-255 -96l-8 69q117 93 273 93t256 -76q101 -76 102 -215q0 -87 -51 -191t-179 -290t-133 -392h-65q6 223 136 417t174 286t44 166z" />
    <glyph glyph-name="at" unicode="@" horiz-adv-x="1763" 
d="M991 821q-147 0 -269 -119t-122 -313q0 -104 49 -169q49 -64 141 -64t175 83q81 83 110 257l51 307q-57 18 -135 18zM819 -279q-285 -1 -483 185t-197 493q0 248 121 445t310 300t391 103t354 -98q151 -98 227 -248t76 -338t-106 -323t-267 -136q-78 0 -130 52t-60 137
q-39 -89 -120 -145t-176 -56t-162 75t-67 208q0 221 134 365t335 145q109 0 199 -35l-78 -492q-14 -90 27 -145t119 -55q106 0 196 110t90 301q0 266 -162 444q-163 177 -444 177q-131 0 -264 -57q-286 -122 -414 -402q-68 -147 -68 -309t55 -288q99 -231 351 -316
q113 -39 236 -39q225 0 432 115l6 -62q-215 -111 -461 -111z" />
    <glyph glyph-name="A" unicode="A" horiz-adv-x="1134" 
d="M825 571l-258 768l-258 -768h516zM846 506h-559l-170 -506h-72l479 1409h90l476 -1409h-74z" />
    <glyph glyph-name="B" unicode="B" horiz-adv-x="1007" 
d="M250 664v-607q80 -12 156 -12q174 0 292 83q118 84 117 228q0 144 -115 226t-333 82h-117zM250 729h92q182 0 325 88q142 88 142 242q0 305 -416 305q-63 0 -143 -12v-623zM389 1430q244 0 370 -96t126 -254q0 -157 -109 -253t-254 -114q168 -17 270 -113t101 -238
q0 -178 -141 -280t-375 -102q-103 0 -197 20v1407q119 23 209 23z" />
    <glyph glyph-name="C" unicode="C" horiz-adv-x="1218" 
d="M752 -20q-264 0 -446 191q-181 191 -181 519t193 534q194 206 470 206q227 0 351 -87l-9 -67q-152 88 -339 88q-244 0 -418 -183t-174 -486t167 -477t408 -173q178 0 340 88l6 -67q-158 -86 -368 -86z" />
    <glyph glyph-name="D" unicode="D" horiz-adv-x="1323" 
d="M430 45q293 0 494 187q200 188 200 484t-178 472t-491 176q-119 0 -205 -18v-1289q94 -12 180 -12zM476 1430q165 0 308 -56q270 -107 368 -374q46 -124 46 -265q0 -350 -220 -553t-560 -202q-117 -1 -238 22v1401q131 27 296 27z" />
    <glyph glyph-name="E" unicode="E" horiz-adv-x="905" 
d="M803 1335h-553v-592h487v-65h-487v-612h561v-66h-631v1401h623v-66z" />
    <glyph glyph-name="F" unicode="F" horiz-adv-x="845" 
d="M803 1335h-553v-661h487v-66h-487v-608h-70v1401h623v-66z" />
    <glyph glyph-name="G" unicode="G" horiz-adv-x="1257" 
d="M1130 637v-586q-160 -72 -354 -71q-297 0 -474 191t-177 522t193 534q194 203 468 203q236 0 353 -82l-9 -72q-141 88 -337 88q-242 0 -418 -181t-176 -472q0 -183 51 -317q90 -238 328 -315q100 -34 236 -34t247 47v479h-301v66h370z" />
    <glyph glyph-name="H" unicode="H" horiz-adv-x="1253" 
d="M1081 0h-69v678h-762v-678h-70v1409h70v-666h762v666h69v-1409z" />
    <glyph glyph-name="I" unicode="I" horiz-adv-x="421" 
d="M250 0h-70v1409h70v-1409z" />
    <glyph glyph-name="J" unicode="J" horiz-adv-x="487" 
d="M324 1409v-1112q0 -309 -82 -478t-305 -257l-27 57q196 84 270 227t74 447v1116h70z" />
    <glyph glyph-name="K" unicode="K" horiz-adv-x="1042" 
d="M250 0h-70v1409h70v-791l704 791h90l-620 -694l598 -715h-90l-559 670l-123 -138v-532z" />
    <glyph glyph-name="L" unicode="L" horiz-adv-x="882" 
d="M250 66h567v-66h-637v1409h70v-1343z" />
    <glyph glyph-name="M" unicode="M" horiz-adv-x="1601" 
d="M301 1409l389 -1026q61 -162 109 -305q55 162 110 305l394 1026h112l23 -1409h-74l-14 979q-2 172 0 373q-37 -100 -140 -373l-370 -963h-92l-361 963q-80 207 -139 389q6 -199 2 -389l-12 -979h-70l22 1409h111z" />
    <glyph glyph-name="N" unicode="N" horiz-adv-x="1236" 
d="M1073 0h-80l-608 1032q-86 147 -156 289q6 -123 7 -301v-1020h-68v1409h80l594 -1014q92 -160 170 -311q-6 184 -6 322v1003h67v-1409z" />
    <glyph glyph-name="O" unicode="O" horiz-adv-x="1458" 
d="M729 1364q-233 0 -381 -184t-149 -475q0 -291 148 -475q147 -184 381 -185q234 0 383 184q149 183 149 475t-149 476t-382 184zM729 1430q264 0 434 -201t170 -525t-170 -524t-434 -200t-434 200t-170 525t170 525t434 200z" />
    <glyph glyph-name="P" unicode="P" horiz-adv-x="935" 
d="M342 678q215 0 345 99t130 257q0 330 -411 330q-72 0 -156 -14v-664q53 -8 92 -8zM180 0v1405q106 25 221 25q246 0 370 -106t124 -293q0 -185 -155 -301t-373 -116q-61 0 -117 7v-621h-70z" />
    <glyph glyph-name="Q" unicode="Q" horiz-adv-x="1458" 
d="M199 705q0 -291 149 -477q150 -185 381 -185t381 185q150 184 150 476t-148 476t-382 184t-382 -184t-149 -475zM125 705q0 325 170 525t434 200t434 -201t170 -510t-144 -502t-376 -227l-6 -2l317 -365l-59 -41l-336 398q-264 0 -434 200t-170 525z" />
    <glyph glyph-name="R" unicode="R" horiz-adv-x="993" 
d="M250 684h88q203 0 345 96t142 264q0 319 -419 320q-72 0 -156 -14v-666zM180 0v1405q106 25 221 25q248 0 375 -104t127 -267q-1 -164 -113 -269t-266 -128q119 -14 184 -82t93 -193q49 -213 104 -387h-80q-59 211 -91 353t-107 205q-76 62 -271 63h-106v-621h-70z" />
    <glyph glyph-name="S" unicode="S" horiz-adv-x="931" 
d="M384 45q145 0 243 88t98 211t-66 197t-213 127q-311 113 -311 379q0 174 111 278q110 105 268 105t260 -66l-12 -70q-100 70 -238 70t-227 -85q-88 -85 -88 -213q1 -128 65 -205t216 -135t233 -142q80 -84 80 -234t-122 -260t-308 -110q-150 -1 -281 65l12 68
q135 -68 280 -68z" />
    <glyph glyph-name="T" unicode="T" horiz-adv-x="937" 
d="M920 1335h-414v-1335h-70v1335h-413v66h897v-66z" />
    <glyph glyph-name="U" unicode="U" horiz-adv-x="1257" 
d="M1102 1409v-932q0 -242 -124 -374t-347 -132t-347 132t-124 354v952h69v-928q1 -217 105 -331t292 -113q188 0 298 104q109 104 108 320v948h70z" />
    <glyph glyph-name="V" unicode="V" horiz-adv-x="1124" 
d="M616 0h-92l-483 1409h72l458 -1335l457 1335h72z" />
    <glyph glyph-name="W" unicode="W" horiz-adv-x="1630" 
d="M113 1409l264 -999q37 -141 84 -344q6 31 76 344l239 979h94l236 -979q53 -221 80 -344q10 43 88 344l260 999h72l-377 -1409h-88l-238 979q-53 221 -80 344q-8 -37 -82 -344l-235 -979h-88l-377 1409h72z" />
    <glyph glyph-name="X" unicode="X" horiz-adv-x="966" 
d="M539 715l389 -715h-84l-348 653l-365 -653h-78l402 711l-373 698h80l336 -641l364 641h82z" />
    <glyph glyph-name="Y" unicode="Y" horiz-adv-x="946" 
d="M530 0h-69v629l-424 780h84l377 -711l374 711h82l-424 -780v-629z" />
    <glyph glyph-name="Z" unicode="Z" horiz-adv-x="995" 
d="M924 66v-66h-844v51l751 1284h-692v66h781v-58l-752 -1277h756z" />
    <glyph glyph-name="bracketleft" unicode="[" horiz-adv-x="735" 
d="M530 1477h-237v-1618h237v-58h-299v1733h299v-57z" />
    <glyph glyph-name="backslash" unicode="\" horiz-adv-x="788" 
d="M778 -199h-65l-703 1733h68z" />
    <glyph glyph-name="bracketright" unicode="]" horiz-adv-x="735" 
d="M504 -199h-299v58h237v1618h-237v57h299v-1733z" />
    <glyph glyph-name="asciicircum" unicode="^" horiz-adv-x="843" 
d="M762 461h-76l-260 586l-270 -586h-74l311 647h66z" />
    <glyph glyph-name="underscore" unicode="_" horiz-adv-x="1024" 
d="M1024 -135h-1024v57h1024v-57z" />
    <glyph glyph-name="grave" unicode="`" horiz-adv-x="1024" 
d="M393 1337l174 -239l-63 4l-201 241z" />
    <glyph glyph-name="a" unicode="a" horiz-adv-x="919" 
d="M686 399v103q-72 12 -158 12q-147 0 -240 -75t-93 -177t60 -160t162 -59q101 0 185 95t84 261zM686 692q0 234 -248 236q-112 0 -235 -74l-4 68q113 70 253 70t222 -76q82 -75 82 -211v-705h-60l-8 195q-41 -107 -125 -161t-186 -54t-179 72t-77 194q0 160 121 246
t293 86q86 0 151 -15v129z" />
    <glyph glyph-name="b" unicode="b" horiz-adv-x="1071" 
d="M242 573v-182q0 -145 90 -247t218 -101q128 0 233 114t105 313q0 198 -82 328q-83 130 -251 130q-127 0 -220 -111t-93 -244zM242 1505v-753q35 100 125 170t204 69q179 0 285 -139q106 -140 106 -368t-122 -366q-123 -138 -291 -138q-100 0 -189 62q-88 62 -120 171
l-9 -213h-59v1505h70z" />
    <glyph glyph-name="c" unicode="c" horiz-adv-x="843" 
d="M518 -20q-162 0 -286 126q-124 127 -124 373t130 379q129 133 325 133q123 0 217 -45l-8 -67q-98 49 -203 49q-163 0 -275 -114t-112 -334t106 -328t275 -109q107 0 205 47l4 -65q-92 -45 -254 -45z" />
    <glyph glyph-name="d" unicode="d" horiz-adv-x="1071" 
d="M829 397v183q0 145 -90 246q-90 102 -218 102t-233 -114q-106 -114 -106 -314t83 -328q83 -129 251 -129q127 1 220 111t93 243zM899 1505v-1505h-59l-9 225q-33 -102 -125 -174t-206 -71q-180 0 -286 139q-105 139 -105 367t122 367q123 138 291 138q98 0 186 -59
t121 -166v739h70z" />
    <glyph glyph-name="e" unicode="e" horiz-adv-x="923" 
d="M745 532q0 195 -72 294q-73 100 -195 100t-208 -108t-96 -286h571zM482 991q164 0 248 -128q85 -128 85 -310q0 -45 -6 -82h-637q0 -209 86 -319t232 -109q146 0 264 68l4 -66q-106 -65 -278 -65t-277 126t-105 360q0 233 110 379t274 146z" />
    <glyph glyph-name="f" unicode="f" horiz-adv-x="548" 
d="M213 963v139q0 204 95 314t243 110q68 0 115 -21l-7 -63q-49 20 -118 20q-115 0 -187 -92t-71 -246v-161h247v-60h-247v-903h-70v903h-137v60h137z" />
    <glyph glyph-name="g" unicode="g" horiz-adv-x="1071" 
d="M518 928q-125 0 -230 -114q-106 -114 -106 -314t83 -328q83 -129 251 -129q119 1 210 99t103 225v231q-8 138 -97 234t-214 96zM897 971v-916q0 -227 -115 -361t-306 -134t-292 80l9 69q133 -88 289 -88t251 115q94 115 94 309v168q-37 -98 -126 -166t-201 -67
q-180 0 -286 139q-105 139 -105 367t122 367q123 138 291 138q100 0 188 -62t121 -171l9 213h57z" />
    <glyph glyph-name="h" unicode="h" horiz-adv-x="1021" 
d="M242 1505v-739q31 96 114 161q84 65 187 64q151 0 233 -94t82 -242v-655h-70v627q0 139 -66 219t-188 80t-207 -111t-85 -237v-578h-70v1505h70z" />
    <glyph glyph-name="i" unicode="i" horiz-adv-x="413" 
d="M172 0v971h70v-971h-70zM207 1288q23 0 39 -16t16 -39t-16 -39t-39 -16t-39 16t-16 39t16 39t39 16z" />
    <glyph glyph-name="j" unicode="j" horiz-adv-x="444" 
d="M272 971v-680q0 -287 -84 -451t-262 -280l-39 55q164 102 240 252t76 405v699h69zM238 1288q22 0 38 -16t16 -39t-16 -39t-38 -16t-39 16q-16 16 -17 39q0 23 16 39t40 16z" />
    <glyph glyph-name="k" unicode="k" horiz-adv-x="847" 
d="M242 0h-70v1505h70v-1044l481 514h88l-461 -488l467 -487h-104l-418 442l-53 -55v-387z" />
    <glyph glyph-name="l" unicode="l" horiz-adv-x="413" 
d="M242 0h-70v1505h70v-1505z" />
    <glyph glyph-name="m" unicode="m" horiz-adv-x="1556" 
d="M530 991q104 -1 179 -65q74 -64 98 -168q37 104 116 169t173 64q139 0 218 -94t79 -229v-668h-70v639q0 129 -61 207q-60 78 -172 78t-192 -106t-81 -234v-584h-69v639q0 129 -62 207t-172 78q-112 0 -192 -106t-80 -234v-584h-70v971h59l9 -205q35 104 110 165
q76 60 180 60z" />
    <glyph glyph-name="n" unicode="n" horiz-adv-x="1021" 
d="M858 655v-655h-70v627q0 139 -66 219t-188 80t-207 -111t-85 -237v-578h-70v971h59l11 -209q31 98 113 164q83 66 188 65q151 0 233 -94t82 -242z" />
    <glyph glyph-name="o" unicode="o" horiz-adv-x="1011" 
d="M506 928q-142 0 -236 -118t-94 -325t93 -325t237 -117q144 0 236 118q94 119 94 325t-94 324t-236 118zM506 991q186 0 295 -143q109 -142 109 -362t-110 -363q-108 -143 -294 -143t-295 143t-109 362t109 363t295 143z" />
    <glyph glyph-name="p" unicode="p" horiz-adv-x="1071" 
d="M242 573v-182q0 -145 90 -247t218 -101q128 0 233 114t105 313q0 198 -82 328q-83 130 -251 130q-127 0 -220 -111t-93 -244zM549 -20q-98 0 -185 59t-122 166v-625h-70v1391h59l9 -226q33 103 125 175t206 71q179 0 285 -139q106 -140 106 -368t-122 -366
q-123 -138 -291 -138z" />
    <glyph glyph-name="q" unicode="q" horiz-adv-x="1071" 
d="M829 397v183q0 145 -90 246q-90 102 -218 102t-233 -114q-106 -114 -106 -314t83 -328q83 -129 251 -129q127 1 220 111t93 243zM899 971v-1391h-70v639q-35 -100 -125 -170t-204 -69q-180 0 -286 139q-105 139 -105 367t122 367q123 138 291 138q100 0 188 -62t121 -171
l9 213h59z" />
    <glyph glyph-name="r" unicode="r" horiz-adv-x="550" 
d="M459 991q37 0 51 -8l-8 -65q-18 8 -56 8q-94 0 -149 -109t-55 -256v-561h-70v971h59l9 -193q16 92 78 152t141 61z" />
    <glyph glyph-name="s" unicode="s" horiz-adv-x="718" 
d="M298 43q108 0 177 56q70 57 70 137t-48 126t-159 92t-167 105t-56 172t83 187q84 74 204 74t196 -52l-6 -72q-86 60 -184 60t-160 -56t-62 -142q0 -85 47 -131t159 -92q112 -47 169 -107t57 -146q0 -123 -91 -199q-91 -75 -227 -75t-222 53l6 69q106 -59 214 -59z" />
    <glyph glyph-name="t" unicode="t" horiz-adv-x="626" 
d="M311 963h244v-60h-244v-682q0 -90 40 -135q41 -45 105 -45t107 25l4 -60q-43 -26 -128 -26t-141 57t-56 174v692h-156v60h156v266h69v-266z" />
    <glyph glyph-name="u" unicode="u" horiz-adv-x="1021" 
d="M850 971v-971h-59l-11 209q-32 -98 -114 -164t-187 -65q-151 0 -233 94t-82 241v656h69v-627q0 -139 67 -219q66 -80 188 -80t207 111t85 237v578h70z" />
    <glyph glyph-name="v" unicode="v" horiz-adv-x="913" 
d="M496 0h-76l-363 971h82l320 -895l327 895h76z" />
    <glyph glyph-name="w" unicode="w" horiz-adv-x="1331" 
d="M995 0h-90l-235 866l-238 -866h-88l-283 971h76l252 -910l246 902h76l241 -902l252 910h76z" />
    <glyph glyph-name="x" unicode="x" horiz-adv-x="806" 
d="M436 483l303 -483h-82l-264 432l-278 -432h-80l317 481l-301 490h80l266 -436l281 436h80z" />
    <glyph glyph-name="y" unicode="y" horiz-adv-x="856" 
d="M836 971l-367 -971q-72 -180 -158 -284t-213 -156l-28 59q116 45 202 153t119 230l-360 969h84l317 -899l326 899h78z" />
    <glyph glyph-name="z" unicode="z" horiz-adv-x="776" 
d="M690 59v-59h-635v55l555 848h-501v60h581v-58l-555 -846h555z" />
    <glyph glyph-name="braceleft" unicode="{" horiz-adv-x="813" 
d="M606 1544v-57q-104 0 -147 -51t-33 -168l33 -402q6 -86 -20 -134t-93 -62q74 -16 98 -62t15 -139l-33 -397q-10 -117 33 -170t147 -54v-57q-150 0 -202 76t-35 268l28 320q8 100 -25 139q-34 39 -122 39v69q88 0 120 39t23 140l-24 319q-17 192 35 268t202 76z" />
    <glyph glyph-name="bar" unicode="|" horiz-adv-x="675" 
d="M369 -481h-62v2048h62v-2048z" />
    <glyph glyph-name="braceright" unicode="}" horiz-adv-x="813" 
d="M207 1487v57q150 0 202 -76t35 -268l-28 -319q-8 -100 25 -140q34 -39 122 -39v-69q-88 0 -120 -39t-23 -139l24 -320q16 -193 -36 -269t-201 -75v57q104 0 147 52t33 168l-33 401q-6 86 20 134t93 63q-73 16 -97 62t-16 138l33 398q10 117 -33 170t-147 53z" />
    <glyph glyph-name="asciitilde" unicode="~" horiz-adv-x="1150" 
d="M973 682h59q0 -116 -54 -184t-152 -68t-260 89q-163 89 -238 89q-150 0 -150 -192h-59q0 116 54 184q53 68 153 68t259 -90t238 -89q150 0 150 193z" />
    <glyph glyph-name="exclamdown" unicode="&#xa1;" horiz-adv-x="454" 
d="M254 721l16 -1143h-86l17 1143h53zM227 864q-27 0 -47 20t-20 48q0 27 20 47t47 20t47 -20t20 -47q0 -28 -20 -48t-47 -20z" />
    <glyph glyph-name="sterling" unicode="&#xa3;" horiz-adv-x="1001" 
d="M719 1311q-115 1 -195 -95t-80 -218t35 -312h346v-57h-331q16 -102 16 -166q0 -274 -236 -395h629v-66h-751v49q116 43 200 149t84 259q0 82 -14 170h-281v57h265q-35 193 -35 283q0 188 107 298q108 109 237 109t209 -43l-6 -69q-84 47 -199 47z" />
    <glyph glyph-name="yen" unicode="&#xa5;" horiz-adv-x="983" 
d="M805 750v-58h-281v-178h281v-57h-281v-457h-69v457h-281v57h281v178h-281v58h246l-318 591h84l306 -600l315 600h74l-316 -591h240z" />
    <glyph glyph-name="dieresis" unicode="&#xa8;" horiz-adv-x="1024" 
d="M635 1268q23 0 39 -16t16 -40q0 -22 -16 -38t-39 -16t-39 16t-16 38t16 40q16 16 39 16zM389 1268q23 0 39 -16t16 -40q0 -22 -16 -38t-39 -16t-39 16t-16 38t16 40q16 16 39 16z" />
    <glyph glyph-name="guillemotleft" unicode="&#xab;" horiz-adv-x="880" 
d="M461 516l244 -346h-82l-244 346l244 346h82zM236 516l243 -346h-82l-243 346l243 346h82z" />
    <glyph glyph-name="acute" unicode="&#xb4;" horiz-adv-x="1024" 
d="M430 1100l-63 -4l174 239l90 6z" />
    <glyph glyph-name="cedilla" unicode="&#xb8;" horiz-adv-x="1024" 
d="M647 -200q0 -58 -50 -94q-49 -36 -115 -36t-120 27l11 49q51 -25 100 -25t77 24q28 23 28 63t-33 60t-117 19l76 127h63l-47 -82q127 -16 127 -132z" />
    <glyph glyph-name="guillemotright" unicode="&#xbb;" horiz-adv-x="880" 
d="M727 516l-244 -346h-82l244 346l-244 346h82zM502 516l-244 -346h-82l244 346l-244 346h82z" />
    <glyph glyph-name="questiondown" unicode="&#xbf;" horiz-adv-x="765" 
d="M448 -442q-156 0 -257 75q-101 76 -101 215q0 88 51 192t179 288q128 186 133 393h65q-6 -223 -136 -417t-174 -286t-44 -165q0 -113 79 -171t215 -58t255 95l8 -69q-117 -92 -273 -92zM481 864q-27 0 -47 20t-20 48q0 27 20 47t47 20t47 -20t20 -47q0 -28 -20 -48
t-47 -20z" />
    <glyph glyph-name="Agrave" unicode="&#xc0;" horiz-adv-x="1134" 
d="M567 1339l-258 -768h516zM287 506l-170 -506h-72l479 1409h90l476 -1409h-74l-170 506h-559zM451 1751l174 -240l-64 5l-201 241z" />
    <glyph glyph-name="Aacute" unicode="&#xc1;" horiz-adv-x="1134" 
d="M567 1339l-258 -768h516zM287 506l-170 -506h-72l479 1409h90l476 -1409h-74l-170 506h-559zM590 1513l-64 -4l174 240l91 6z" />
    <glyph glyph-name="Acircumflex" unicode="&#xc2;" horiz-adv-x="1134" 
d="M567 1339l-258 -768h516zM287 506l-170 -506h-72l479 1409h90l476 -1409h-74l-170 506h-559zM745 1507h-69l-107 187l-106 -187h-68l146 230h59z" />
    <glyph glyph-name="Atilde" unicode="&#xc3;" horiz-adv-x="1134" 
d="M567 1339l-258 -768h516zM287 506l-170 -506h-72l479 1409h90l476 -1409h-74l-170 506h-559zM762 1679v-14q0 -41 -24 -65t-68 -23q-44 -1 -108 23t-97 24q-41 0 -41 -47h-47v14q0 41 23 65q46 46 186 -3q53 -21 91 -21t38 47h47z" />
    <glyph glyph-name="Adieresis" unicode="&#xc4;" horiz-adv-x="1134" 
d="M567 1339l-258 -768h516zM287 506l-170 -506h-72l479 1409h90l476 -1409h-74l-170 506h-559zM692 1681q23 0 39 -16q17 -16 17 -39t-16 -39t-40 -16q-23 0 -39 16t-16 39t16 39t39 16zM446 1681q23 0 39 -16q17 -16 17 -39t-16 -39t-40 -16q-22 0 -38 16t-17 39
q0 23 16 39t39 16z" />
    <glyph glyph-name="Aring" unicode="&#xc5;" horiz-adv-x="1134" 
d="M567 1339l-258 -768h516zM287 506l-170 -506h-72l479 1409h90l476 -1409h-74l-170 506h-559zM569 1726q-33 0 -55 -22t-20 -60q0 -38 22 -60t54 -22t54 22t21 61q0 39 -21 60q-22 21 -55 21zM569 1776q55 0 95 -38t38 -93q0 -55 -38 -94q-38 -38 -94 -38t-95 38
q-39 37 -39 93t39 94t94 38z" />
    <glyph glyph-name="AE" unicode="&#xc6;" horiz-adv-x="1697" 
d="M920 571l-91 770l-395 -770h486zM1618 66v-66h-631l-59 506h-527l-260 -506h-75l725 1401h737v-66h-629l70 -592h534v-65h-526l74 -612h567z" />
    <glyph glyph-name="Ccedilla" unicode="&#xc7;" horiz-adv-x="1218" 
d="M758 -68q127 -16 127 -132q0 -58 -50 -94q-49 -36 -115 -36t-120 27l10 49q50 -25 100 -25t78 24q28 23 27 63q0 40 -33 60t-116 19l55 93q-254 12 -425 202t-171 513t193 529q194 206 470 206q228 -1 351 -87l-9 -67q-152 88 -339 88q-244 0 -418 -183t-174 -486
t167 -477t408 -173q178 0 340 88l6 -67q-145 -80 -334 -86z" />
    <glyph glyph-name="Egrave" unicode="&#xc8;" horiz-adv-x="905" 
d="M803 1335h-553v-592h487v-65h-487v-612h561v-66h-631v1401h623v-66zM373 1751l174 -240l-64 5l-200 241z" />
    <glyph glyph-name="Eacute" unicode="&#xc9;" horiz-adv-x="905" 
d="M250 1335v-592h487v-65h-487v-612h561v-66h-631v1401h623v-66h-553zM512 1513l-63 -4l174 240l90 6z" />
    <glyph glyph-name="Ecircumflex" unicode="&#xca;" horiz-adv-x="905" 
d="M250 1335v-592h487v-65h-487v-612h561v-66h-631v1401h623v-66h-553zM668 1507h-70l-106 187l-107 -187h-68l146 230h59z" />
    <glyph glyph-name="Edieresis" unicode="&#xcb;" horiz-adv-x="905" 
d="M803 1335h-553v-592h487v-65h-487v-612h561v-66h-631v1401h623v-66zM614 1681q23 0 39 -16q17 -16 17 -39t-16 -39t-40 -16q-23 0 -39 16t-16 39t16 39t39 16zM369 1681q23 0 39 -16t16 -39t-16 -39t-39 -16t-39 16t-17 39q1 23 17 39t39 16z" />
    <glyph glyph-name="Igrave" unicode="&#xcc;" horiz-adv-x="421" 
d="M180 0v1409h70v-1409h-70zM96 1751l174 -240l-63 5l-201 241z" />
    <glyph glyph-name="Iacute" unicode="&#xcd;" horiz-adv-x="421" 
d="M180 0v1409h70v-1409h-70zM236 1513l-64 -4l174 240l90 6z" />
    <glyph glyph-name="Icircumflex" unicode="&#xce;" horiz-adv-x="421" 
d="M180 0v1409h70v-1409h-70zM391 1507h-69l-107 187l-106 -187h-68l145 230h60z" />
    <glyph glyph-name="Idieresis" unicode="&#xcf;" horiz-adv-x="421" 
d="M180 0v1409h70v-1409h-70zM338 1681q23 0 39 -16t16 -39t-16 -39t-39 -16t-39 16t-16 39t16 39t39 16zM92 1681q23 0 39 -16t16 -39t-16 -39t-39 -16t-39 16t-16 39t16 39t39 16z" />
    <glyph glyph-name="Ntilde" unicode="&#xd1;" horiz-adv-x="1236" 
d="M236 0h-68v1409h80l594 -1014q92 -160 170 -311q-6 184 -6 322v1003h67v-1409h-80l-608 1032q-86 147 -156 289q6 -123 7 -301v-1020zM813 1679v-14q1 -41 -23 -65t-68 -23q-44 -1 -108 23t-98 24q-41 0 -41 -47h-47v14q0 41 24 65q46 46 185 -3q53 -21 91 -21t38 47h47z
" />
    <glyph glyph-name="Ograve" unicode="&#xd2;" horiz-adv-x="1458" 
d="M729 1364q-233 0 -381 -184t-149 -475q0 -291 148 -475q147 -184 381 -185q234 0 383 184q149 183 149 475t-149 476t-382 184zM729 1430q264 0 434 -201t170 -525t-170 -524t-434 -200t-434 200t-170 525t170 525t434 200zM610 1751l174 -240l-63 5l-201 241z" />
    <glyph glyph-name="Oacute" unicode="&#xd3;" horiz-adv-x="1458" 
d="M729 1364q-233 0 -381 -184t-149 -475q0 -291 148 -475q147 -184 381 -185q234 0 383 184q149 183 149 475t-149 476t-382 184zM729 1430q264 0 434 -201t170 -525t-170 -524t-434 -200t-434 200t-170 525t170 525t434 200zM750 1513l-64 -4l174 240l90 6z" />
    <glyph glyph-name="Ocircumflex" unicode="&#xd4;" horiz-adv-x="1458" 
d="M729 1364q-233 0 -381 -184t-149 -475q0 -291 148 -475q147 -184 381 -185q234 0 383 184q149 183 149 475t-149 476t-382 184zM729 1430q264 0 434 -201t170 -525t-170 -524t-434 -200t-434 200t-170 525t170 525t434 200zM905 1507h-69l-107 187l-106 -187h-68l145 230
h60z" />
    <glyph glyph-name="Otilde" unicode="&#xd5;" horiz-adv-x="1458" 
d="M729 1364q-233 0 -381 -184t-149 -475q0 -291 148 -475q147 -184 381 -185q234 0 383 184q149 183 149 475t-149 476t-382 184zM729 1430q264 0 434 -201t170 -525t-170 -524t-434 -200t-434 200t-170 525t170 525t434 200zM922 1679v-14q0 -41 -24 -65t-68 -23
q-44 -1 -108 23t-97 24q-41 0 -41 -47h-47v14q0 41 23 65q46 46 185 -3q53 -20 89 -21q41 0 40 47h48z" />
    <glyph glyph-name="Odieresis" unicode="&#xd6;" horiz-adv-x="1458" 
d="M729 1364q-233 0 -381 -184t-149 -475q0 -291 148 -475q147 -184 381 -185q234 0 383 184q149 183 149 475t-149 476t-382 184zM729 1430q264 0 434 -201t170 -525t-170 -524t-434 -200t-434 200t-170 525t170 525t434 200zM852 1681q23 0 39 -16t16 -39t-16 -39t-39 -16
t-39 16t-16 39t16 39t39 16zM606 1681q23 0 39 -16q17 -16 17 -39t-16 -39t-40 -16q-23 0 -39 16t-16 39t16 39t39 16z" />
    <glyph glyph-name="Oslash" unicode="&#xd8;" horiz-adv-x="1458" 
d="M734 45q228 0 377 184q149 185 149 477t-152 476l-746 -969q144 -168 372 -168zM729 1364q-233 0 -381 -184t-150 -458q0 -274 121 -454l744 965q-141 131 -334 131zM1333 710q0 -328 -170 -530q-170 -200 -425 -200t-421 176l-112 -148l-53 41l120 158
q-147 201 -147 511t170 512q170 200 434 200q217 0 377 -142l86 113l53 -41l-92 -119q180 -203 180 -531z" />
    <glyph glyph-name="Ugrave" unicode="&#xd9;" horiz-adv-x="1257" 
d="M1102 1409v-932q0 -242 -124 -374t-347 -132t-347 132t-124 354v952h69v-928q1 -217 105 -331t292 -113q188 0 298 104q109 104 108 320v948h70zM512 1772l174 -240l-63 4l-201 242z" />
    <glyph glyph-name="Uacute" unicode="&#xda;" horiz-adv-x="1257" 
d="M1102 1409v-932q0 -242 -124 -374t-347 -132t-347 132t-124 354v952h69v-928q1 -217 105 -331t292 -113q188 0 298 104q109 104 108 320v948h70zM651 1534l-63 -4l174 239l90 7z" />
    <glyph glyph-name="Ucircumflex" unicode="&#xdb;" horiz-adv-x="1257" 
d="M1102 1409v-932q0 -242 -124 -374t-347 -132t-347 132t-124 354v952h69v-928q1 -217 105 -331t292 -113q188 0 298 104q109 104 108 320v948h70zM807 1528h-70l-106 186l-107 -186h-67l145 229h60z" />
    <glyph glyph-name="Udieresis" unicode="&#xdc;" horiz-adv-x="1257" 
d="M1102 1409v-932q0 -242 -124 -374t-347 -132t-347 132t-124 354v952h69v-928q1 -217 105 -331t292 -113q188 0 298 104q109 104 108 320v948h70zM754 1702q23 0 39 -16t16 -39t-16 -39t-39 -16t-39 16t-17 39q0 23 16 39t40 16zM508 1702q23 0 39 -16t16 -39t-16 -39
t-39 -16t-39 16t-16 39t16 39t39 16z" />
    <glyph glyph-name="Yacute" unicode="&#xdd;" horiz-adv-x="946" 
d="M530 0h-69v629l-424 780h84l377 -711l374 711h82l-424 -780v-629zM516 1554l-63 -4l174 240l90 6z" />
    <glyph glyph-name="germandbls" unicode="&#xdf;" horiz-adv-x="1095" 
d="M588 47q128 0 223 93q94 93 94 225q0 166 -121 260t-348 94v59q193 0 323 102t130 252t-82 241t-218 91q-135 0 -229 -97t-94 -239v-1128h-69v903h-121v60h121v145q-1 194 111 306t280 112t271 -108t103 -260t-94 -256q-96 -103 -250 -138q172 -35 266 -135t95 -262
q0 -162 -116 -273t-298 -110q-125 -1 -209 32l6 68q98 -37 226 -37z" />
    <glyph glyph-name="agrave" unicode="&#xe0;" horiz-adv-x="919" 
d="M686 399v103q-72 12 -158 12q-147 0 -240 -75t-93 -177t60 -160t162 -59q101 0 185 95t84 261zM686 692q0 234 -248 236q-112 0 -235 -74l-4 68q113 70 253 70t222 -76q82 -75 82 -211v-705h-60l-8 195q-41 -107 -125 -161t-186 -54t-179 72t-77 194q0 160 121 246
t293 86q86 0 151 -15v129zM356 1337l174 -239l-63 4l-201 241z" />
    <glyph glyph-name="aacute" unicode="&#xe1;" horiz-adv-x="919" 
d="M686 399v103q-72 12 -158 12q-147 0 -240 -75t-93 -177t60 -160t162 -59q101 0 185 95t84 261zM686 692q0 234 -248 236q-112 0 -235 -74l-4 68q113 70 253 70t222 -76q82 -75 82 -211v-705h-60l-8 195q-41 -107 -125 -161t-186 -54t-179 72t-77 194q0 160 121 246
t293 86q86 0 151 -15v129zM496 1100l-64 -4l174 239l90 6z" />
    <glyph glyph-name="acircumflex" unicode="&#xe2;" horiz-adv-x="919" 
d="M686 399v103q-72 12 -158 12q-147 0 -240 -75t-93 -177t60 -160t162 -59q101 0 185 95t84 261zM686 692q0 234 -248 236q-112 0 -235 -74l-4 68q113 70 253 70t222 -76q82 -75 82 -211v-705h-60l-8 195q-41 -107 -125 -161t-186 -54t-179 72t-77 194q0 160 121 246
t293 86q86 0 151 -15v129zM651 1094h-69l-107 186l-106 -186h-68l145 229h60z" />
    <glyph glyph-name="atilde" unicode="&#xe3;" horiz-adv-x="919" 
d="M686 399v103q-72 12 -158 12q-147 0 -240 -75t-93 -177t60 -160t162 -59q101 0 185 95t84 261zM686 692q0 234 -248 236q-112 0 -235 -74l-4 68q113 70 253 70t222 -76q82 -75 82 -211v-705h-60l-8 195q-41 -107 -125 -161t-186 -54t-179 72t-77 194q0 160 121 246
t293 86q86 0 151 -15v129zM668 1266v-15q0 -41 -24 -65t-68 -23q-44 -1 -108 23t-97 24q-41 0 -41 -47h-47v15q-1 40 23 64t68 24t108 -24t98 -23q41 0 41 47h47z" />
    <glyph glyph-name="adieresis" unicode="&#xe4;" horiz-adv-x="919" 
d="M686 399v103q-72 12 -158 12q-147 0 -240 -75t-93 -177t60 -160t162 -59q101 0 185 95t84 261zM686 692q0 234 -248 236q-112 0 -235 -74l-4 68q113 70 253 70t222 -76q82 -75 82 -211v-705h-60l-8 195q-41 -107 -125 -161t-186 -54t-179 72t-77 194q0 160 121 246
t293 86q86 0 151 -15v129zM598 1268q23 0 39 -16t16 -40q0 -22 -16 -38t-39 -16t-39 16t-16 38t16 40q16 16 39 16zM352 1268q23 0 39 -16q17 -16 17 -40q0 -22 -16 -38t-40 -16q-23 0 -39 16t-16 38t16 40q16 16 39 16z" />
    <glyph glyph-name="aring" unicode="&#xe5;" horiz-adv-x="919" 
d="M686 399v103q-72 12 -158 12q-147 0 -240 -75t-93 -177t60 -160t162 -59q101 0 185 95t84 261zM686 692q0 234 -248 236q-112 0 -235 -74l-4 68q113 70 253 70t222 -76q82 -75 82 -211v-705h-60l-8 195q-41 -107 -125 -161t-186 -54t-179 72t-77 194q0 160 121 246
t293 86q86 0 151 -15v129zM475 1313q-33 0 -55 -22q-22 -23 -21 -61q0 -38 22 -60q23 -22 55 -22t54 22t21 61q1 39 -21 61t-55 21zM475 1362q55 0 94 -38t39 -93t-39 -93t-94 -38t-94 38t-39 93t39 93t94 38z" />
    <glyph glyph-name="ae" unicode="&#xe6;" horiz-adv-x="1521" 
d="M721 406v71q-63 10 -201 10q-138 1 -232 -65t-93 -164q0 -98 58 -156q57 -58 159 -59t206 101t103 262zM1343 532q0 195 -69 294q-70 100 -191 100t-199 -107t-89 -287h548zM1090 991q106 1 183 -65q140 -119 140 -373q0 -45 -6 -82h-614q0 -209 85 -319t224 -109
q139 0 256 68l4 -66q-106 -65 -250 -65q-278 1 -362 276q-35 -127 -143 -202q-107 -74 -219 -74t-190 72t-77 194q0 150 122 228t296 77q119 0 182 -10v110q0 135 -77 206q-78 71 -194 71t-239 -74l-4 68q113 70 245 70t215 -62q83 -61 109 -170q47 111 127 171
q81 60 187 60z" />
    <glyph glyph-name="ccedilla" unicode="&#xe7;" horiz-adv-x="843" 
d="M537 -68q127 -16 127 -132q0 -58 -50 -94t-116 -36t-119 27l10 49q51 -25 101 -25t76 24q28 23 28 63t-33 60t-117 19l56 95q-166 12 -279 138t-113 366t130 372q129 133 325 133q123 0 217 -45l-8 -67q-98 49 -203 49q-163 0 -275 -114t-112 -334t106 -328t275 -109
q106 0 205 47l4 -65q-90 -43 -207 -45z" />
    <glyph glyph-name="egrave" unicode="&#xe8;" horiz-adv-x="923" 
d="M745 532q0 195 -72 294q-73 100 -195 100t-208 -108t-96 -286h571zM482 991q164 0 248 -128q85 -128 85 -310q0 -45 -6 -82h-637q0 -209 86 -319t232 -109q146 0 264 68l4 -66q-106 -65 -278 -65t-277 126t-105 360q0 233 110 379t274 146zM352 1337l174 -239l-63 4
l-201 241z" />
    <glyph glyph-name="eacute" unicode="&#xe9;" horiz-adv-x="923" 
d="M745 532q0 195 -72 294q-73 100 -195 100t-208 -108t-96 -286h571zM482 991q164 0 248 -128q85 -128 85 -310q0 -45 -6 -82h-637q0 -209 86 -319t232 -109q146 0 264 68l4 -66q-106 -65 -278 -65t-277 126t-105 360q0 233 110 379t274 146zM492 1100l-64 -4l174 239l90 6
z" />
    <glyph glyph-name="ecircumflex" unicode="&#xea;" horiz-adv-x="923" 
d="M745 532q0 195 -72 294q-73 100 -195 100t-208 -108t-96 -286h571zM482 991q164 0 248 -128q85 -128 85 -310q0 -45 -6 -82h-637q0 -209 86 -319t232 -109q146 0 264 68l4 -66q-106 -65 -278 -65t-277 126t-105 360q0 233 110 379t274 146zM647 1094h-69l-107 186
l-106 -186h-68l145 229h60z" />
    <glyph glyph-name="edieresis" unicode="&#xeb;" horiz-adv-x="923" 
d="M745 532q0 195 -72 294q-73 100 -195 100t-208 -108t-96 -286h571zM482 991q164 0 248 -128q85 -128 85 -310q0 -45 -6 -82h-637q0 -209 86 -319t232 -109q146 0 264 68l4 -66q-106 -65 -278 -65t-277 126t-105 360q0 233 110 379t274 146zM594 1268q23 0 39 -16t16 -40
q0 -22 -16 -38t-39 -16t-39 16t-16 38t16 40q16 16 39 16zM348 1268q23 0 39 -16t16 -40q0 -22 -16 -38t-39 -16t-39 16t-16 38t16 40q16 16 39 16z" />
    <glyph glyph-name="igrave" unicode="&#xec;" horiz-adv-x="397" 
d="M164 0v971h69v-971h-69zM80 1337l174 -239l-64 4l-200 241z" />
    <glyph glyph-name="iacute" unicode="&#xed;" horiz-adv-x="397" 
d="M164 0v971h69v-971h-69zM219 1100l-63 -4l174 239l90 6z" />
    <glyph glyph-name="icircumflex" unicode="&#xee;" horiz-adv-x="397" 
d="M164 0v971h69v-971h-69zM375 1094h-70l-106 186l-107 -186h-67l145 229h59z" />
    <glyph glyph-name="idieresis" unicode="&#xef;" horiz-adv-x="397" 
d="M164 0v971h69v-971h-69zM322 1268q22 0 38 -16t16 -40q0 -22 -16 -38t-38 -16t-39 16t-17 38t16 40q16 16 40 16zM76 1268q23 0 39 -16t16 -40q0 -22 -16 -38t-39 -16t-39 16q-17 16 -17 38t16 40q16 16 40 16z" />
    <glyph glyph-name="ntilde" unicode="&#xf1;" horiz-adv-x="1021" 
d="M858 655v-655h-70v627q0 139 -66 219t-188 80t-207 -111t-85 -237v-578h-70v971h59l11 -209q31 98 113 164q83 66 188 65q151 0 233 -94t82 -242zM702 1266v-15q0 -41 -24 -65t-67 -23q-44 -1 -108 23t-97 24q-41 0 -41 -47h-48v15q0 40 24 64q23 24 67 24t108 -24
t98 -23q41 0 41 47h47z" />
    <glyph glyph-name="ograve" unicode="&#xf2;" horiz-adv-x="1011" 
d="M506 928q-142 0 -236 -118t-94 -325t93 -325t237 -117q144 0 236 118q94 119 94 325t-94 324t-236 118zM506 991q186 0 295 -143q109 -142 109 -362t-110 -363q-108 -143 -294 -143t-295 143t-109 362t109 363t295 143zM387 1337l174 -239l-63 4l-201 241z" />
    <glyph glyph-name="oacute" unicode="&#xf3;" horiz-adv-x="1011" 
d="M506 928q-142 0 -236 -118t-94 -325t93 -325t237 -117q144 0 236 118q94 119 94 325t-94 324t-236 118zM506 991q186 0 295 -143q109 -142 109 -362t-110 -363q-108 -143 -294 -143t-295 143t-109 362t109 363t295 143zM526 1100l-63 -4l174 239l90 6z" />
    <glyph glyph-name="ocircumflex" unicode="&#xf4;" horiz-adv-x="1011" 
d="M506 928q-142 0 -236 -118t-94 -325t93 -325t237 -117q144 0 236 118q94 119 94 325t-94 324t-236 118zM506 991q186 0 295 -143q109 -142 109 -362t-110 -363q-108 -143 -294 -143t-295 143t-109 362t109 363t295 143zM682 1094h-70l-106 186l-107 -186h-67l145 229h60z
" />
    <glyph glyph-name="otilde" unicode="&#xf5;" horiz-adv-x="1011" 
d="M506 928q-142 0 -236 -118t-94 -325t93 -325t237 -117q144 0 236 118q94 119 94 325t-94 324t-236 118zM506 991q186 0 295 -143q109 -142 109 -362t-110 -363q-108 -143 -294 -143t-295 143t-109 362t109 363t295 143zM698 1266v-15q0 -41 -24 -65t-67 -23
q-45 -1 -109 23t-97 24q-41 0 -41 -47h-47v15q0 40 24 64q23 24 67 24t108 -24t98 -23q41 0 41 47h47z" />
    <glyph glyph-name="odieresis" unicode="&#xf6;" horiz-adv-x="1011" 
d="M506 928q-142 0 -236 -118t-94 -325t93 -325t237 -117q144 0 236 118q94 119 94 325t-94 324t-236 118zM506 991q186 0 295 -143q109 -142 109 -362t-110 -363q-108 -143 -294 -143t-295 143t-109 362t109 363t295 143zM629 1268q23 0 39 -16t16 -40q0 -22 -16 -38
t-39 -16t-39 16t-16 38t16 40q16 16 39 16zM383 1268q23 0 39 -16t16 -40q0 -22 -16 -38t-39 -16t-39 16t-16 38t16 40q16 16 39 16z" />
    <glyph glyph-name="oslash" unicode="&#xf8;" horiz-adv-x="1003" 
d="M510 43q139 0 232 118q94 118 94 309t-72 306l-483 -631q90 -102 229 -102zM176 504q0 -188 68 -305l483 630q-90 99 -227 99q-136 0 -230 -118t-94 -306zM909 482q-1 -216 -109 -359t-282 -143t-278 110l-101 -129l-49 39l109 141q-97 137 -97 350t109 357t282 143
q173 0 275 -106l96 125l49 -39l-102 -135q98 -138 98 -354z" />
    <glyph glyph-name="ugrave" unicode="&#xf9;" horiz-adv-x="1021" 
d="M850 0h-59l-11 209q-32 -98 -114 -164t-187 -65q-151 0 -233 94t-82 241v656h69v-627q0 -139 67 -219q66 -80 188 -80t207 111t85 237v578h70v-971zM393 1337l174 -239l-63 4l-201 241z" />
    <glyph glyph-name="uacute" unicode="&#xfa;" horiz-adv-x="1021" 
d="M850 0h-59l-11 209q-32 -98 -114 -164t-187 -65q-151 0 -233 94t-82 241v656h69v-627q0 -139 67 -219q66 -80 188 -80t207 111t85 237v578h70v-971zM532 1100l-63 -4l174 239l90 6z" />
    <glyph glyph-name="ucircumflex" unicode="&#xfb;" horiz-adv-x="1021" 
d="M850 0h-59l-11 209q-32 -98 -114 -164t-187 -65q-151 0 -233 94t-82 241v656h69v-627q0 -139 67 -219q66 -80 188 -80t207 111t85 237v578h70v-971zM688 1094h-70l-106 186l-106 -186h-68l145 229h60z" />
    <glyph glyph-name="udieresis" unicode="&#xfc;" horiz-adv-x="1021" 
d="M850 0h-59l-11 209q-32 -98 -114 -164t-187 -65q-151 0 -233 94t-82 241v656h69v-627q0 -139 67 -219q66 -80 188 -80t207 111t85 237v578h70v-971zM635 1268q23 0 39 -16t16 -40q0 -22 -16 -38t-39 -16t-39 16t-16 38t16 40q16 16 39 16zM389 1268q23 0 39 -16t16 -40
q0 -22 -16 -38t-39 -16t-39 16t-16 38t16 40q16 16 39 16z" />
    <glyph glyph-name="yacute" unicode="&#xfd;" horiz-adv-x="856" 
d="M836 971l-367 -971q-72 -180 -158 -284t-213 -156l-28 59q116 45 202 153t119 230l-360 969h84l317 -899l326 899h78zM453 1100l-64 -4l174 239l90 6z" />
    <glyph glyph-name="ydieresis" unicode="&#xff;" horiz-adv-x="856" 
d="M836 971l-367 -971q-72 -180 -158 -284t-213 -156l-28 59q116 45 202 153t119 230l-360 969h84l317 -899l326 899h78zM555 1268q23 0 39 -16t16 -40q0 -22 -16 -38t-39 -16t-39 16t-16 38t16 40q16 16 39 16zM309 1268q23 0 39 -16t16 -40q0 -22 -16 -38t-39 -16t-39 16
t-16 38t16 40q16 16 39 16z" />
    <glyph glyph-name="Abreve" unicode="&#x102;" horiz-adv-x="1134" 
d="M567 1339l-258 -768h516zM287 506l-170 -506h-72l479 1409h90l476 -1409h-74l-170 506h-559zM569 1561q59 0 98 44q38 44 44 126h55q-6 -99 -56 -161t-142 -62t-140 60q-49 61 -55 163h55q6 -82 44 -126t97 -44z" />
    <glyph glyph-name="abreve" unicode="&#x103;" horiz-adv-x="919" 
d="M686 399v103q-72 12 -158 12q-147 0 -240 -75t-93 -177t60 -160t162 -59q101 0 185 95t84 261zM686 692q0 234 -248 236q-112 0 -235 -74l-4 68q113 70 253 70t222 -76q82 -75 82 -211v-705h-60l-8 195q-41 -107 -125 -161t-186 -54t-179 72t-77 194q0 160 121 246
t293 86q86 0 151 -15v129zM475 1147q59 0 97 44t44 126h56q-6 -99 -56 -161t-142 -62q-91 0 -140 60t-55 163h55q6 -82 44 -126t97 -44z" />
    <glyph glyph-name="Gbreve" unicode="&#x11e;" horiz-adv-x="1257" 
d="M1130 637v-586q-160 -72 -354 -71q-297 0 -474 191t-177 522t193 534q194 203 468 203q236 0 353 -82l-9 -72q-141 88 -337 88q-242 0 -418 -181t-176 -472q0 -183 51 -317q90 -238 328 -315q100 -34 236 -34t247 47v479h-301v66h370zM727 1561q59 0 97 44t44 126h56
q-6 -99 -56 -161t-142 -62q-90 0 -140 60q-50 61 -56 163h56q6 -82 44 -126t97 -44z" />
    <glyph glyph-name="gbreve" unicode="&#x11f;" horiz-adv-x="1071" 
d="M518 928q-125 0 -230 -114q-106 -114 -106 -314t83 -328q83 -129 251 -129q119 1 210 99t103 225v231q-8 138 -97 234t-214 96zM897 971v-916q0 -227 -115 -361t-306 -134t-292 80l9 69q133 -88 289 -88t251 115q94 115 94 309v168q-37 -98 -126 -166t-201 -67
q-180 0 -286 139q-105 139 -105 367t122 367q123 138 291 138q100 0 188 -62t121 -171l9 213h57zM520 1147q59 0 97 44t45 126h55q-7 -99 -57 -161t-141 -62t-140 60t-55 163h55q6 -82 44 -126t97 -44z" />
    <glyph glyph-name="Idotaccent" unicode="&#x130;" horiz-adv-x="430" 
d="M180 0v1409h70v-1409h-70zM215 1681q23 0 39 -16t16 -39t-16 -39t-39 -16t-39 16t-16 39t16 39t39 16z" />
    <glyph glyph-name="dotlessi" unicode="&#x131;" horiz-adv-x="397" 
d="M233 0h-69v971h69v-971z" />
    <glyph glyph-name="IJ" unicode="&#x132;" horiz-adv-x="909" 
d="M745 1409v-1112q1 -309 -81 -478t-306 -257l-26 57q196 84 270 227t74 447v1116h69zM180 0v1409h70v-1409h-70z" />
    <glyph glyph-name="ij" unicode="&#x133;" horiz-adv-x="858" 
d="M686 971v-680q0 -287 -84 -451t-262 -280l-39 55q164 102 240 252t75 405v699h70zM172 971h70v-971h-70v971zM651 1288q23 0 39 -16t16 -39t-16 -39t-39 -16t-39 16t-16 39t16 39t39 16zM207 1288q23 0 39 -16t16 -39t-16 -39t-39 -16t-39 16t-16 39t16 39t39 16z" />
    <glyph glyph-name="OE" unicode="&#x152;" horiz-adv-x="1984" 
d="M729 45q233 0 382 184q149 183 149 475t-148 476t-382 184t-382 -184t-149 -475q0 -291 148 -476q149 -184 382 -184zM1890 66v-66h-630v371q-68 -183 -206 -287t-329 -104q-264 0 -432 200t-168 525t168 525t432 200q191 0 329 -104t206 -288v363h622v-66h-553v-592h488
v-65h-488v-612h561z" />
    <glyph glyph-name="oe" unicode="&#x153;" horiz-adv-x="1660" 
d="M1483 532q0 195 -73 294q-73 100 -195 100t-208 -108t-96 -286h572zM506 43q143 0 236 117q94 116 94 324t-94 326t-236 118t-236 -118t-94 -325t94 -325t236 -117zM102 485q0 219 109 363t295 143q137 0 231 -79t135 -216q42 135 134 215t208 80q168 0 253 -128t85 -310
q0 -45 -6 -82h-637q0 -209 86 -319q87 -110 233 -109q146 0 263 68l4 -66q-106 -66 -283 -65q-123 0 -213 76t-129 212q-43 -133 -136 -211t-228 -77q-186 0 -295 143t-109 362z" />
    <glyph glyph-name="Scedilla" unicode="&#x15e;" horiz-adv-x="931" 
d="M453 -68q127 -16 127 -132q0 -58 -50 -94t-116 -36t-119 27l10 49q51 -25 101 -25t76 24q28 23 28 63t-33 60t-117 19l56 95l-43 -2q-150 0 -281 65l12 68q135 -68 280 -68t243 88t98 211t-66 197t-213 127q-311 113 -311 379q0 174 111 278q110 105 268 105t260 -66
l-12 -70q-100 70 -238 70t-227 -85q-88 -85 -88 -213q1 -128 65 -205t216 -135t233 -142q80 -84 80 -220t-86 -237q-86 -102 -230 -135z" />
    <glyph glyph-name="scedilla" unicode="&#x15f;" horiz-adv-x="718" 
d="M618 247q0 -93 -61 -163t-160 -94l-35 -58q128 -16 128 -132q0 -58 -51 -94q-49 -36 -115 -36t-119 27l10 49q51 -25 100 -25t77 24q28 23 28 63t-33 60t-117 19l56 93h-23q-139 0 -225 53l6 69q106 -59 214 -59t177 56q70 57 70 137t-48 126t-159 92t-167 105t-56 172
t83 187q84 74 204 74t196 -52l-6 -72q-86 60 -184 60t-160 -56t-62 -142q0 -85 47 -131t159 -92q112 -47 169 -107t57 -153z" />
    <glyph glyph-name="Wcircumflex" unicode="&#x174;" horiz-adv-x="1630" 
d="M113 1409l264 -999q37 -141 84 -344q6 31 76 344l239 979h94l236 -979q53 -221 80 -344q10 43 88 344l260 999h72l-377 -1409h-88l-238 979q-53 221 -80 344q-8 -37 -82 -344l-235 -979h-88l-377 1409h72zM999 1507h-69l-107 187l-106 -187h-68l146 230h59z" />
    <glyph glyph-name="wcircumflex" unicode="&#x175;" horiz-adv-x="1331" 
d="M905 0l-235 866l-238 -866h-88l-283 971h76l252 -910l246 902h76l241 -902l252 910h76l-285 -971h-90zM848 1094h-70l-106 186l-107 -186h-67l145 229h59z" />
    <glyph glyph-name="Ycircumflex" unicode="&#x176;" horiz-adv-x="946" 
d="M530 0h-69v629l-424 780h84l377 -711l374 711h82l-424 -780v-629zM672 1548h-70l-106 187l-107 -187h-67l145 230h59z" />
    <glyph glyph-name="ycircumflex" unicode="&#x177;" horiz-adv-x="856" 
d="M836 971l-367 -971q-72 -180 -158 -284t-213 -156l-28 59q116 45 202 153t119 230l-360 969h84l317 -899l326 899h78zM608 1094h-69l-107 186l-106 -186h-68l145 229h60z" />
    <glyph glyph-name="Ydieresis" unicode="&#x178;" horiz-adv-x="946" 
d="M530 0h-69v629l-424 780h84l377 -711l374 711h82l-424 -780v-629zM618 1722q23 0 39 -16q17 -16 17 -39t-16 -39t-40 -16q-22 0 -38 16t-17 39q0 23 16 39t39 16zM373 1722q23 0 39 -16t16 -39t-16 -39t-39 -16t-39 16t-17 39q1 23 17 39t39 16z" />
    <glyph glyph-name="circumflex" unicode="&#x2c6;" horiz-adv-x="1024" 
d="M688 1094h-70l-106 186l-106 -186h-68l145 229h60z" />
    <glyph glyph-name="breve" unicode="&#x2d8;" horiz-adv-x="1024" 
d="M512 1147q59 0 97 44t44 126h56q-7 -99 -57 -161t-141 -62t-141 60t-55 163h56q6 -82 44 -126t97 -44z" />
    <glyph glyph-name="ring" unicode="&#x2da;" horiz-adv-x="1024" 
d="M512 1313q-32 0 -54 -22q-22 -23 -22 -61t22 -60t54 -22t54 22t22 61t-22 61t-54 21zM512 1362q55 0 94 -38t39 -93t-39 -93t-94 -38t-94 38t-39 93t39 93t94 38z" />
    <glyph glyph-name="tilde" unicode="&#x2dc;" horiz-adv-x="1024" 
d="M705 1266v-15q0 -41 -24 -65t-68 -23q-44 -1 -108 23t-97 24q-41 0 -41 -47h-48v15q0 40 24 64t68 24t107 -24t98 -23q41 0 41 47h48z" />
    <glyph glyph-name="Wgrave" unicode="&#x1e80;" horiz-adv-x="1630" 
d="M113 1409l264 -999q37 -141 84 -344q6 31 76 344l239 979h94l236 -979q53 -221 80 -344q10 43 88 344l260 999h72l-377 -1409h-88l-238 979q-53 221 -80 344q-8 -37 -82 -344l-235 -979h-88l-377 1409h72zM705 1751l174 -240l-64 5l-201 241z" />
    <glyph glyph-name="wgrave" unicode="&#x1e81;" horiz-adv-x="1331" 
d="M905 0l-235 866l-238 -866h-88l-283 971h76l252 -910l246 902h76l241 -902l252 910h76l-285 -971h-90zM553 1337l174 -239l-63 4l-201 241z" />
    <glyph glyph-name="Wacute" unicode="&#x1e82;" horiz-adv-x="1630" 
d="M113 1409l264 -999q37 -141 84 -344q6 31 76 344l239 979h94l236 -979q53 -221 80 -344q10 43 88 344l260 999h72l-377 -1409h-88l-238 979q-53 221 -80 344q-8 -37 -82 -344l-235 -979h-88l-377 1409h72zM844 1513l-64 -4l174 240l90 6z" />
    <glyph glyph-name="wacute" unicode="&#x1e83;" horiz-adv-x="1331" 
d="M905 0l-235 866l-238 -866h-88l-283 971h76l252 -910l246 902h76l241 -902l252 910h76l-285 -971h-90zM692 1100l-63 -4l174 239l90 6z" />
    <glyph glyph-name="Wdieresis" unicode="&#x1e84;" horiz-adv-x="1630" 
d="M113 1409l264 -999q37 -141 84 -344q6 31 76 344l239 979h94l236 -979q53 -221 80 -344q10 43 88 344l260 999h72l-377 -1409h-88l-238 979q-53 221 -80 344q-8 -37 -82 -344l-235 -979h-88l-377 1409h72zM946 1681q23 0 39 -16t16 -39t-16 -39t-39 -16t-39 16t-16 39
t16 39t39 16zM700 1681q23 0 39 -16q17 -16 17 -39t-16 -39t-40 -16q-22 0 -38 16t-17 39q0 23 16 39t39 16z" />
    <glyph glyph-name="wdieresis" unicode="&#x1e85;" horiz-adv-x="1331" 
d="M905 0l-235 866l-238 -866h-88l-283 971h76l252 -910l246 902h76l241 -902l252 910h76l-285 -971h-90zM795 1268q23 0 39 -16t16 -40q0 -22 -16 -38t-39 -16t-39 16t-16 38t16 40q16 16 39 16zM549 1268q23 0 39 -16t16 -40q0 -22 -16 -38t-39 -16t-39 16t-16 38t16 40
q16 16 39 16z" />
    <glyph glyph-name="Ygrave" unicode="&#x1ef2;" horiz-adv-x="946" 
d="M530 0h-69v629l-424 780h84l377 -711l374 711h82l-424 -780v-629zM377 1792l174 -240l-64 4l-200 242z" />
    <glyph glyph-name="ygrave" unicode="&#x1ef3;" horiz-adv-x="856" 
d="M836 971l-367 -971q-72 -180 -158 -284t-213 -156l-28 59q116 45 202 153t119 230l-360 969h84l317 -899l326 899h78zM313 1337l174 -239l-63 4l-201 241z" />
    <glyph glyph-name="endash" unicode="&#x2013;" horiz-adv-x="1024" 
d="M909 524h-794v58h794v-58z" />
    <glyph glyph-name="emdash" unicode="&#x2014;" horiz-adv-x="2048" 
d="M1933 524h-1818v58h1818v-58z" />
    <glyph glyph-name="quoteleft" unicode="&#x2018;" horiz-adv-x="419" 
d="M158 952l-82 -4l241 547l56 10z" />
    <glyph glyph-name="quoteright" unicode="&#x2019;" horiz-adv-x="438" 
d="M131 958l-55 -10l215 553l82 4z" />
    <glyph glyph-name="quotedblleft" unicode="&#x201c;" horiz-adv-x="624" 
d="M362 952l-81 -4l241 547l56 10zM158 952l-82 -4l241 547l56 10z" />
    <glyph glyph-name="quotedblright" unicode="&#x201d;" horiz-adv-x="622" 
d="M315 958l-55 -10l215 553l82 4zM131 958l-55 -10l215 553l82 4z" />
    <glyph glyph-name="quotedblbase" unicode="&#x201e;" horiz-adv-x="600" 
d="M209 -291l-59 -10l194 512l84 4zM4 -291l-59 -10l194 512l84 4z" />
    <glyph glyph-name="ellipsis" unicode="&#x2026;" horiz-adv-x="1050" 
d="M836 123q29 -1 48 -21t19 -47t-19 -47t-48 -20t-49 20q-19 20 -19 47t20 47t48 21zM508 123q29 -1 48 -21t19 -47t-19 -47t-48 -20t-48 20t-20 47q0 27 20 47t48 21zM180 123q29 -1 48 -21q20 -20 20 -47t-20 -47t-48 -20q-29 0 -48 20t-19 47t19 47t48 21z" />
    <glyph glyph-name="guilsinglleft" unicode="&#x2039;" horiz-adv-x="655" 
d="M236 516l243 -346h-82l-243 346l243 346h82z" />
    <glyph glyph-name="guilsinglright" unicode="&#x203a;" horiz-adv-x="655" 
d="M502 516l-244 -346h-82l244 346l-244 346h82z" />
    <glyph glyph-name="Euro" unicode="&#x20ac;" 
d="M639 45q135 0 227 68l11 -68q-100 -65 -269 -65t-283 139t-135 389h-79l8 57h65q-4 104 2 180h-49l8 58h45q25 268 146 421t321 152q152 0 228 -57l-8 -72q-84 63 -222 64q-174 1 -274 -139t-121 -369h426l-10 -58h-422q-6 -70 -2 -180h399l-8 -57h-387q49 -463 383 -463
z" />
    </font>
</defs>
</svg>
